<svg width="45" height="45" viewBox="0 0 45 45" fill="none" xmlns="http://www.w3.org/2000/svg">
<path d="M45 22.5C45 34.9264 34.9264 45 22.5 45C10.0736 45 0 34.9264 0 22.5C0 10.0736 10.0736 0 22.5 0C34.9264 0 45 10.0736 45 22.5Z" fill="#FB9C46"/>
<path d="M21.8 25.4913C26.5725 25.4913 30.6 26.2668 30.6 29.2589C30.6 32.252 26.5461 33 21.8 33C17.0286 33 13 32.2245 13 29.2325C13 26.2393 17.0539 25.4913 21.8 25.4913ZM21.8 11C25.033 11 27.6234 13.5894 27.6234 16.8202C27.6234 20.0509 25.033 22.6414 21.8 22.6414C18.5681 22.6414 15.9766 20.0509 15.9766 16.8202C15.9766 13.5894 18.5681 11 21.8 11Z" fill="white"/>
</svg>
