<svg width="1221" height="380" viewBox="0 0 1221 380" fill="none" xmlns="http://www.w3.org/2000/svg">
<path d="M0 8.00001C0 3.58173 3.58172 0 8 0H1213C1217.42 0 1221 3.58172 1221 8V371.258C1221 375.676 1217.42 379.258 1213 379.258H7.99997C3.58169 379.258 0 375.676 0 371.258V8.00001Z" fill="#F2BF62"/>
<path d="M0 8.00001C0 3.58173 3.58172 0 8 0H1151.9C1156.32 0 1159.9 3.58172 1159.9 8V371.258C1159.9 375.676 1156.32 379.258 1151.9 379.258H7.99999C3.58171 379.258 0 375.676 0 371.258V8.00001Z" fill="url(#paint0_linear_0_1)"/>
<mask id="mask0_0_1" style="mask-type:alpha" maskUnits="userSpaceOnUse" x="0" y="0" width="1159" height="360">
<path d="M0 8C0 3.58172 3.58172 0 8 0H1151C1155.42 0 1159 3.58172 1159 8V352C1159 356.418 1155.42 360 1151 360H8.00002C3.58174 360 0 356.418 0 352V8Z" fill="#00B8D9"/>
</mask>
<g mask="url(#mask0_0_1)">
<g opacity="0.07">
<path d="M1644.5 366.616C1644.5 604.002 1452.07 796.442 1214.68 796.442C977.293 796.442 784.854 604.002 784.854 366.616C784.854 129.23 977.293 -63.2095 1214.68 -63.2095C1452.07 -63.2095 1644.5 129.23 1644.5 366.616Z" fill="#FF922F"/>
<path fill-rule="evenodd" clip-rule="evenodd" d="M1214.68 792.442C1449.86 792.442 1640.5 601.793 1640.5 366.616C1640.5 131.439 1449.86 -59.2095 1214.68 -59.2095C979.502 -59.2095 788.854 131.439 788.854 366.616C788.854 601.793 979.502 792.442 1214.68 792.442ZM1214.68 796.442C1452.07 796.442 1644.5 604.002 1644.5 366.616C1644.5 129.23 1452.07 -63.2095 1214.68 -63.2095C977.293 -63.2095 784.854 129.23 784.854 366.616C784.854 604.002 977.293 796.442 1214.68 796.442Z" fill="white"/>
<path d="M1575.65 365.573C1575.65 565.507 1413.57 727.586 1213.64 727.586C1013.7 727.586 851.623 565.507 851.623 365.573C851.623 165.638 1013.7 3.55933 1213.64 3.55933C1413.57 3.55933 1575.65 165.638 1575.65 365.573Z" fill="#FF922F"/>
<path fill-rule="evenodd" clip-rule="evenodd" d="M1213.64 723.586C1411.36 723.586 1571.65 563.298 1571.65 365.573C1571.65 167.847 1411.36 7.55933 1213.64 7.55933C1015.91 7.55933 855.623 167.847 855.623 365.573C855.623 563.298 1015.91 723.586 1213.64 723.586ZM1213.64 727.586C1413.57 727.586 1575.65 565.507 1575.65 365.573C1575.65 165.638 1413.57 3.55933 1213.64 3.55933C1013.7 3.55933 851.623 165.638 851.623 365.573C851.623 565.507 1013.7 727.586 1213.64 727.586Z" fill="white"/>
<path d="M1515.14 366.616C1515.14 532.556 1380.62 667.077 1214.68 667.077C1048.74 667.077 914.219 532.556 914.219 366.616C914.219 200.676 1048.74 66.1555 1214.68 66.1555C1380.62 66.1555 1515.14 200.676 1515.14 366.616Z" fill="#FF922F"/>
<path fill-rule="evenodd" clip-rule="evenodd" d="M1214.68 663.077C1378.41 663.077 1511.14 530.347 1511.14 366.616C1511.14 202.885 1378.41 70.1555 1214.68 70.1555C1050.95 70.1555 918.219 202.885 918.219 366.616C918.219 530.347 1050.95 663.077 1214.68 663.077ZM1214.68 667.077C1380.62 667.077 1515.14 532.556 1515.14 366.616C1515.14 200.676 1380.62 66.1555 1214.68 66.1555C1048.74 66.1555 914.219 200.676 914.219 366.616C914.219 532.556 1048.74 667.077 1214.68 667.077Z" fill="white"/>
<path d="M1456.72 366.616C1456.72 500.29 1348.35 608.654 1214.68 608.654C1081.01 608.654 972.642 500.29 972.642 366.616C972.642 232.942 1081.01 124.578 1214.68 124.578C1348.35 124.578 1456.72 232.942 1456.72 366.616Z" fill="#FF922F"/>
<path fill-rule="evenodd" clip-rule="evenodd" d="M1214.68 604.654C1346.14 604.654 1452.72 498.081 1452.72 366.616C1452.72 235.151 1346.14 128.578 1214.68 128.578C1083.21 128.578 976.642 235.151 976.642 366.616C976.642 498.081 1083.21 604.654 1214.68 604.654ZM1214.68 608.654C1348.35 608.654 1456.72 500.29 1456.72 366.616C1456.72 232.942 1348.35 124.578 1214.68 124.578C1081.01 124.578 972.642 232.942 972.642 366.616C972.642 500.29 1081.01 608.654 1214.68 608.654Z" fill="white"/>
<path d="M1396.21 366.616C1396.21 466.871 1314.93 548.144 1214.68 548.144C1114.42 548.144 1033.15 466.871 1033.15 366.616C1033.15 266.361 1114.42 185.088 1214.68 185.088C1314.93 185.088 1396.21 266.361 1396.21 366.616Z" fill="#FF922F"/>
<path fill-rule="evenodd" clip-rule="evenodd" d="M1214.68 544.144C1312.73 544.144 1392.21 464.662 1392.21 366.616C1392.21 268.57 1312.73 189.088 1214.68 189.088C1116.63 189.088 1037.15 268.57 1037.15 366.616C1037.15 464.662 1116.63 544.144 1214.68 544.144ZM1214.68 548.144C1314.93 548.144 1396.21 466.871 1396.21 366.616C1396.21 266.361 1314.93 185.088 1214.68 185.088C1114.42 185.088 1033.15 266.361 1033.15 366.616C1033.15 466.871 1114.42 548.144 1214.68 548.144Z" fill="white"/>
<path d="M1351.12 366.616C1351.12 441.971 1290.04 503.059 1214.68 503.059C1139.32 503.059 1078.24 441.971 1078.24 366.616C1078.24 291.261 1139.32 230.173 1214.68 230.173C1290.04 230.173 1351.12 291.261 1351.12 366.616Z" fill="#FF922F"/>
<path fill-rule="evenodd" clip-rule="evenodd" d="M1214.68 499.059C1287.83 499.059 1347.12 439.762 1347.12 366.616C1347.12 293.47 1287.83 234.173 1214.68 234.173C1141.53 234.173 1082.24 293.47 1082.24 366.616C1082.24 439.762 1141.53 499.059 1214.68 499.059ZM1214.68 503.059C1290.04 503.059 1351.12 441.971 1351.12 366.616C1351.12 291.261 1290.04 230.173 1214.68 230.173C1139.32 230.173 1078.24 291.261 1078.24 366.616C1078.24 441.971 1139.32 503.059 1214.68 503.059Z" fill="white"/>
<path fill-rule="evenodd" clip-rule="evenodd" d="M1214.68 439.736C1255.06 439.736 1287.8 406.999 1287.8 366.616C1287.8 326.233 1255.06 293.496 1214.68 293.496C1174.3 293.496 1141.56 326.233 1141.56 366.616C1141.56 406.999 1174.3 439.736 1214.68 439.736ZM1214.68 443.736C1257.27 443.736 1291.8 409.208 1291.8 366.616C1291.8 324.024 1257.27 289.496 1214.68 289.496C1172.09 289.496 1137.56 324.024 1137.56 366.616C1137.56 409.208 1172.09 443.736 1214.68 443.736Z" fill="white"/>
</g>
</g>
<defs>
<linearGradient id="paint0_linear_0_1" x1="1159.9" y1="118.295" x2="24.8535" y2="116.006" gradientUnits="userSpaceOnUse">
<stop stop-color="#F1BF62"/>
<stop offset="1" stop-color="#FF912E"/>
</linearGradient>
</defs>
</svg>
