<svg width="122" height="17" viewBox="0 0 122 17" fill="none" xmlns="http://www.w3.org/2000/svg">
<path d="M8.09354 0.562562L6.06229 4.71881L1.46854 5.37506C0.656035 5.50006 0.343535 6.50006 0.937285 7.09381L4.21854 10.3126L3.43729 14.8438C3.31229 15.6563 4.18729 16.2813 4.90604 15.9063L8.99979 13.7501L13.0623 15.9063C13.781 16.2813 14.656 15.6563 14.531 14.8438L13.7498 10.3126L17.031 7.09381C17.6248 6.50006 17.3123 5.50006 16.4998 5.37506L11.9373 4.71881L9.87479 0.562562C9.53104 -0.156188 8.46854 -0.187438 8.09354 0.562562Z" fill="#FAAD13"/>
<path d="M34.0935 0.562562L32.0623 4.71881L27.4685 5.37506C26.656 5.50006 26.3435 6.50006 26.9373 7.09381L30.2185 10.3126L29.4373 14.8438C29.3123 15.6563 30.1873 16.2813 30.906 15.9063L34.9998 13.7501L39.0623 15.9063C39.781 16.2813 40.656 15.6563 40.531 14.8438L39.7498 10.3126L43.031 7.09381C43.6248 6.50006 43.3123 5.50006 42.4998 5.37506L37.9373 4.71881L35.8748 0.562562C35.531 -0.156188 34.4685 -0.187438 34.0935 0.562562Z" fill="#FAAD13"/>
<path d="M60.0935 0.562562L58.0623 4.71881L53.4685 5.37506C52.656 5.50006 52.3435 6.50006 52.9373 7.09381L56.2185 10.3126L55.4373 14.8438C55.3123 15.6563 56.1873 16.2813 56.906 15.9063L60.9998 13.7501L65.0623 15.9063C65.781 16.2813 66.656 15.6563 66.531 14.8438L65.7498 10.3126L69.031 7.09381C69.6248 6.50006 69.3123 5.50006 68.4998 5.37506L63.9373 4.71881L61.8748 0.562562C61.531 -0.156188 60.4685 -0.187438 60.0935 0.562562Z" fill="#FAAD13"/>
<path d="M86.0935 0.562562L84.0623 4.71881L79.4685 5.37506C78.656 5.50006 78.3435 6.50006 78.9373 7.09381L82.2185 10.3126L81.4373 14.8438C81.3123 15.6563 82.1873 16.2813 82.906 15.9063L86.9998 13.7501L91.0623 15.9063C91.781 16.2813 92.656 15.6563 92.531 14.8438L91.7498 10.3126L95.031 7.09381C95.6248 6.50006 95.3123 5.50006 94.4998 5.37506L89.9373 4.71881L87.8748 0.562562C87.531 -0.156188 86.4685 -0.187438 86.0935 0.562562Z" fill="#FAAD13"/>
<path d="M112.094 0.562562L110.062 4.71881L105.469 5.37506C104.656 5.50006 104.344 6.50006 104.937 7.09381L108.219 10.3126L107.437 14.8438C107.312 15.6563 108.187 16.2813 108.906 15.9063L113 13.7501L117.062 15.9063C117.781 16.2813 118.656 15.6563 118.531 14.8438L117.75 10.3126L121.031 7.09381C121.625 6.50006 121.312 5.50006 120.5 5.37506L115.937 4.71881L113.875 0.562562C113.531 -0.156188 112.469 -0.187438 112.094 0.562562Z" fill="#FAAD13"/>
</svg>
