<svg width="166" height="166" viewBox="0 0 166 166" fill="none" xmlns="http://www.w3.org/2000/svg">
<g filter="url(#filter0_f_9_1886)">
<path d="M96 83C96 90.1797 90.1797 96 83 96C75.8203 96 70 90.1797 70 83C70 75.8203 75.8203 70 83 70C90.1797 70 96 75.8203 96 83Z" fill="#FB9C46"/>
</g>
<path d="M102 78C102 87.9411 93.9411 96 84 96C74.0589 96 66 87.9411 66 78C66 68.0589 74.0589 60 84 60C93.9411 60 102 68.0589 102 78Z" fill="#FB9C46"/>
<path fill-rule="evenodd" clip-rule="evenodd" d="M80.2929 71.2929C80.6834 70.9024 81.3166 70.9024 81.7071 71.2929L87.7071 77.2929C88.0976 77.6834 88.0976 78.3166 87.7071 78.7071L81.7071 84.7071C81.3166 85.0976 80.6834 85.0976 80.2929 84.7071C79.9024 84.3166 79.9024 83.6834 80.2929 83.2929L85.5858 78L80.2929 72.7071C79.9024 72.3166 79.9024 71.6834 80.2929 71.2929Z" fill="white"/>
<defs>
<filter id="filter0_f_9_1886" x="0" y="0" width="166" height="166" filterUnits="userSpaceOnUse" color-interpolation-filters="sRGB">
<feFlood flood-opacity="0" result="BackgroundImageFix"/>
<feBlend mode="normal" in="SourceGraphic" in2="BackgroundImageFix" result="shape"/>
<feGaussianBlur stdDeviation="35" result="effect1_foregroundBlur_9_1886"/>
</filter>
</defs>
</svg>
